<svg id="Capa_1" enable-background="new 0 0 512 512" height="512" viewBox="0 0 512 512" width="512" xmlns="http://www.w3.org/2000/svg"><g><g><g><g><path d="m128.012 486.031c-30.677 0-56.179-9.263-74.48-27.564-30.239-30.239-35.804-80.152-15.673-140.548 18.802-56.407 58.178-116.493 110.873-169.188s112.78-92.07 169.188-110.872c60.395-20.13 110.31-14.566 140.548 15.673s35.804 80.152 15.673 140.548c-18.802 56.407-58.178 116.493-110.873 169.188s-112.781 92.07-169.188 110.872c-23.843 7.947-46.057 11.891-66.068 11.891zm255.635-425.814c-16.258 0-34.826 3.322-54.933 10.025-51.478 17.159-106.825 53.606-155.846 102.626-49.02 49.021-85.467 104.368-102.626 155.846-15.601 46.802-12.894 85.298 7.426 105.619 20.321 20.319 58.816 23.028 105.619 7.426 51.478-17.159 106.825-53.606 155.846-102.626 49.02-49.021 85.467-104.368 102.626-155.846 15.601-46.802 12.894-85.298-7.426-105.619-11.591-11.59-29.101-17.451-50.686-17.451z" fill="#9bd8f9"/></g></g><g><g><path d="m383.987 486.031c-20.012 0-42.221-3.942-66.068-11.891-56.407-18.802-116.493-58.178-169.187-110.873s-92.071-112.78-110.873-169.187c-20.131-60.396-14.565-110.309 15.673-140.548 30.238-30.237 80.151-35.804 140.548-15.673 56.407 18.802 116.493 58.178 169.188 110.873s92.071 112.78 110.873 169.188c20.131 60.396 14.566 110.309-15.673 140.548-18.299 18.299-43.808 27.563-74.481 27.563zm-255.634-425.814c-21.588 0-39.094 5.86-50.685 17.451-20.32 20.321-23.027 58.817-7.426 105.619 17.159 51.478 53.606 106.825 102.626 155.846 49.021 49.02 104.368 85.467 155.846 102.626 46.803 15.602 85.299 12.892 105.619-7.426 20.32-20.321 23.027-58.817 7.426-105.619-17.159-51.478-53.606-106.825-102.626-155.846-49.021-49.02-104.368-85.467-155.846-102.626-20.105-6.703-38.678-10.025-54.934-10.025z" fill="#d3dcfb"/></g></g><g><path d="m256 512c-38.713 0-74.134-28.204-99.741-79.416-23.726-47.453-36.792-110.164-36.792-176.584s13.067-129.131 36.793-176.584c25.606-51.212 61.027-79.416 99.74-79.416 38.712 0 74.134 28.204 99.741 79.416 23.726 47.453 36.792 110.164 36.792 176.584s-13.067 129.131-36.793 176.584c-25.606 51.212-61.028 79.416-99.74 79.416zm0-477.867c-24.745 0-49.971 22.069-69.211 60.548-21.403 42.804-33.189 100.096-33.189 161.319s11.786 118.515 33.189 161.319c19.24 38.479 44.466 60.548 69.211 60.548s49.971-22.069 69.21-60.548c21.403-42.804 33.19-100.096 33.19-161.319s-11.786-118.515-33.19-161.319c-19.239-38.479-44.465-60.548-69.21-60.548z" fill="#e9efff"/></g></g><circle cx="256" cy="256" fill="#ff4155" r="68.267"/><circle cx="51.2" cy="170.667" fill="#4ce088" r="25.6"/><circle cx="460.8" cy="341.333" fill="#ffdd40" r="25.6"/><path d="m256 187.733c-4.043 0-7.997.372-11.847 1.046 32.052 5.612 56.42 33.561 56.42 67.221s-24.367 61.609-56.42 67.221c3.85.674 7.804 1.046 11.847 1.046 37.703 0 68.267-30.564 68.267-68.267s-30.564-68.267-68.267-68.267z" fill="#e80054"/><path d="m51.2 145.067c-4.276 0-8.304 1.054-11.847 2.908 8.173 4.276 13.753 12.83 13.753 22.692s-5.58 18.417-13.753 22.692c3.543 1.854 7.571 2.908 11.847 2.908 14.138 0 25.6-11.462 25.6-25.6 0-14.139-11.462-25.6-25.6-25.6z" fill="#30c16b"/><path d="m460.8 315.733c-4.276 0-8.304 1.054-11.847 2.908 8.173 4.276 13.753 12.83 13.753 22.692s-5.58 18.417-13.753 22.692c3.543 1.854 7.571 2.908 11.847 2.908 14.138 0 25.6-11.461 25.6-25.6 0-14.138-11.462-25.6-25.6-25.6z" fill="#ffb332"/></g></svg>