<svg id="Capa_1" enable-background="new 0 0 510 510" height="512" viewBox="0 0 510 510" width="512" xmlns="http://www.w3.org/2000/svg"><g><path d="m39 71h432v320h-432z" fill="#ecf9fd"/><path d="m255.1 71h215.9v320h-215.9z" fill="#d9f3fc"/><path d="m24 56v350h462v-350zm432 320h-402v-290h402z" fill="#5c7099"/><path d="m486 56v350h-230.9v-30h200.9v-290h-200.9v-30z" fill="#404a80"/><path d="m0 376h510v110h-510z" fill="#404a80"/><path d="m255.1 376h254.9v110h-254.9z" fill="#1f2859"/><path d="m334.19 342h-158.19v-59.23c0-19.46 15.83-35.3 35.3-35.3h86.84c19.43 0 35.24 15.78 35.3 35.19z" fill="#00dd80"/><path d="m334.19 342h-79.09v-94.53h43.04c19.43 0 35.24 15.78 35.3 35.19z" fill="#00aa95"/><circle cx="127" cy="71" fill="#f66" r="47"/><ellipse cx="255" cy="199.35" fill="#ffd5b6" rx="70.81" ry="77.73"/><path d="m325.81 199.35c0 42.82-31.72 77.67-70.71 77.73v-155.46c38.99.06 70.71 34.91 70.71 77.73z" fill="#ffc896"/><path d="m319.61 167.55c-33.079 32.41-88.196 43.222-135.39 33.98-1.175-42.269 29.752-79.91 70.88-79.91 28.69.04 53.43 18.91 64.51 45.93z" fill="#fed843"/><path d="m319.61 167.55c-15.82 15.5-38.34 27.27-64.51 33.1v-79.03c28.69.04 53.43 18.91 64.51 45.93z" fill="#fabe2c"/></g></svg>